<?xml version="1.0" standalone="no"?>
<!DOCTYPE svg PUBLIC "-//W3C//DTD SVG 20010904//EN"
 "http://www.w3.org/TR/2001/REC-SVG-20010904/DTD/svg10.dtd">
<svg version="1.0" xmlns="http://www.w3.org/2000/svg"
 width="300.000000pt" height="300.000000pt" viewBox="0 0 300.000000 300.000000"
 preserveAspectRatio="xMidYMid meet">
<metadata>
Created by potrace 1.11, written by Peter Selinger 2001-2013
</metadata>
<g transform="translate(0.000000,300.000000) scale(0.100000,-0.100000)"
fill="#000000" stroke="none">
<path d="M1518 2855 c-2 -2 -50 -5 -108 -9 -58 -3 -118 -7 -135 -10 -93 -13
-132 -19 -150 -23 -11 -2 -31 -6 -45 -9 -14 -3 -32 -7 -40 -9 -8 -2 -30 -7
-49 -10 -19 -3 -43 -11 -55 -17 -11 -6 -23 -11 -26 -10 -3 1 -30 -6 -60 -15
-30 -9 -59 -17 -65 -19 -5 -1 -53 -19 -105 -40 -139 -55 -296 -138 -292 -155
2 -8 5 -21 7 -29 2 -8 11 -41 19 -72 9 -32 18 -70 21 -85 6 -35 11 -60 32
-163 10 -47 10 -50 13 -52 1 -2 3 -19 5 -38 3 -33 8 -69 20 -135 21 -121 37
-355 37 -550 0 -149 16 -254 49 -333 34 -80 62 -132 71 -132 4 0 8 -4 8 -10 0
-9 58 -104 98 -160 63 -89 263 -287 395 -391 56 -44 110 -87 120 -95 9 -8 19
-14 22 -14 3 0 27 -16 53 -35 27 -19 86 -55 131 -80 l83 -46 61 36 c122 70
146 84 198 121 49 35 126 94 156 119 6 6 31 26 55 45 60 49 268 257 303 305
17 22 33 42 36 45 3 3 26 38 50 78 24 40 55 92 70 115 52 86 97 233 95 310 -1
20 3 37 7 37 5 0 5 5 1 12 -8 13 -8 180 1 313 6 91 9 127 21 225 3 30 8 66 9
80 6 54 17 125 20 130 2 3 6 26 10 50 4 25 9 54 11 65 12 63 23 117 37 173 8
34 16 65 16 67 1 3 1 6 2 8 0 1 2 9 4 17 2 8 8 30 14 48 9 31 8 34 -25 49 -19
9 -34 20 -34 25 0 4 -4 8 -9 8 -5 0 -42 15 -83 34 -171 80 -405 158 -548 182
-14 3 -32 7 -40 9 -16 5 -91 15 -145 20 -16 2 -30 4 -30 5 0 1 -61 4 -135 6
-74 2 -145 6 -157 8 -13 2 -24 2 -25 1z"/>
</g>
</svg>
